{
	"asset":{
		"generator":"Khronos glTF Blender I/O v4.4.56",
		"version":"2.0"
	},
	"extensionsUsed":[
		"KHR_materials_specular"
	],
	"scene":0,
	"scenes":[
		{
			"name":"Scene",
			"nodes":[
				0,
				1,
				2,
				3,
				4,
				5,
				6,
				7,
				8,
				9
			]
		}
	],
	"nodes":[
		{
			"mesh":0,
			"name":"Floor_01_FloorLigthBorder_01_0"
		},
		{
			"mesh":1,
			"name":"Floor_01_FloorMain_01_0"
		},
		{
			"mesh":2,
			"name":"Floor_01_FloorPresentoire_01_0"
		},
		{
			"mesh":3,
			"name":"Floor_01_FloorTrotoire_01_0"
		},
		{
			"mesh":4,
			"name":"Glass_01_Glass_0"
		},
		{
			"mesh":5,
			"name":"Pod_01_ConcretePod_01_0"
		},
		{
			"mesh":6,
			"name":"Pod_01_PodStone_01_0"
		},
		{
			"mesh":7,
			"name":"Roof_01_TopBorder_01_0"
		},
		{
			"mesh":8,
			"name":"Wall_01_Wall_Scene01_0"
		},
		{
			"mesh":9,
			"name":"WMotors_01_LogosFenyr_01_0"
		}
	],
	"materials":[
		{
			"doubleSided":true,
			"name":"FloorLigthBorder_01",
			"pbrMetallicRoughness":{
				"baseColorFactor":[
					0.699999988079071,
					0.699999988079071,
					0.699999988079071,
					1
				],
				"roughnessFactor":0.5
			}
		},
		{
			"doubleSided":true,
			"extensions":{
				"KHR_materials_specular":{
					"specularFactor":0.4000000059604645
				}
			},
			"name":"TopWingsConcrete_01.003",
			"pbrMetallicRoughness":{
				"baseColorTexture":{
					"index":0
				},
				"metallicFactor":0.5,
				"roughnessFactor":0.800000011920929
			}
		},
		{
			"doubleSided":true,
			"name":"TopWingsConcrete_01.002",
			"pbrMetallicRoughness":{
				"baseColorTexture":{
					"index":1
				},
				"roughnessFactor":0.8999999761581421
			}
		},
		{
			"doubleSided":true,
			"name":"TopWingsConcrete_01.005",
			"pbrMetallicRoughness":{
				"baseColorTexture":{
					"index":2
				},
				"metallicFactor":0,
				"roughnessFactor":0.5
			}
		},
		{
			"alphaMode":"BLEND",
			"doubleSided":true,
			"name":"Glass",
			"pbrMetallicRoughness":{
				"baseColorFactor":[
					0.5932428240776062,
					0.8479704856872559,
					1,
					0.5
				],
				"metallicFactor":0.800000011920929,
				"roughnessFactor":0.5
			}
		},
		{
			"doubleSided":true,
			"name":"TopWingsConcrete_01",
			"pbrMetallicRoughness":{
				"baseColorFactor":[
					0.6440978050231934,
					0.6440978050231934,
					0.6440978050231934,
					1
				]
			}
		},
		{
			"doubleSided":true,
			"name":"PodStone_01",
			"pbrMetallicRoughness":{
				"baseColorFactor":[
					0.08551999926567078,
					0.07072000205516815,
					0.06536000221967697,
					1
				]
			}
		},
		{
			"doubleSided":true,
			"name":"TopWingsConcrete_01.004",
			"pbrMetallicRoughness":{
				"baseColorTexture":{
					"index":3
				},
				"metallicFactor":0.5,
				"roughnessFactor":0.5
			}
		},
		{
			"doubleSided":true,
			"name":"LogosFenyr_01",
			"pbrMetallicRoughness":{
				"baseColorFactor":[
					0.5,
					0.5,
					0.5,
					1
				],
				"roughnessFactor":0.5
			}
		}
	],
	"meshes":[
		{
			"name":"Floor_01_FloorLigthBorder_01_0",
			"primitives":[
				{
					"attributes":{
						"POSITION":0,
						"NORMAL":1,
						"TEXCOORD_0":2
					},
					"indices":3,
					"material":0
				}
			]
		},
		{
			"name":"Floor_01_FloorMain_01_0",
			"primitives":[
				{
					"attributes":{
						"POSITION":4,
						"NORMAL":5,
						"TEXCOORD_0":6
					},
					"indices":7,
					"material":1
				}
			]
		},
		{
			"name":"Floor_01_FloorPresentoire_01_0",
			"primitives":[
				{
					"attributes":{
						"POSITION":8,
						"NORMAL":9,
						"TEXCOORD_0":10
					},
					"indices":11,
					"material":2
				}
			]
		},
		{
			"name":"Floor_01_FloorTrotoire_01_0",
			"primitives":[
				{
					"attributes":{
						"POSITION":12,
						"NORMAL":13,
						"TEXCOORD_0":14
					},
					"indices":15,
					"material":3
				}
			]
		},
		{
			"name":"Glass_01_Glass_0",
			"primitives":[
				{
					"attributes":{
						"POSITION":16,
						"NORMAL":17,
						"TEXCOORD_0":18
					},
					"indices":19,
					"material":4
				}
			]
		},
		{
			"name":"Pod_01_ConcretePod_01_0",
			"primitives":[
				{
					"attributes":{
						"POSITION":20,
						"NORMAL":21,
						"TEXCOORD_0":22
					},
					"indices":23,
					"material":5
				}
			]
		},
		{
			"name":"Pod_01_PodStone_01_0",
			"primitives":[
				{
					"attributes":{
						"POSITION":24,
						"NORMAL":25,
						"TEXCOORD_0":26
					},
					"indices":27,
					"material":6
				}
			]
		},
		{
			"name":"Roof_01_TopBorder_01_0",
			"primitives":[
				{
					"attributes":{
						"POSITION":28,
						"NORMAL":29,
						"TEXCOORD_0":30
					},
					"indices":31,
					"material":3
				}
			]
		},
		{
			"name":"Wall_01_Wall_Scene01_0",
			"primitives":[
				{
					"attributes":{
						"POSITION":32,
						"NORMAL":33,
						"TEXCOORD_0":34
					},
					"indices":35,
					"material":7
				}
			]
		},
		{
			"name":"WMotors_01_LogosFenyr_01_0",
			"primitives":[
				{
					"attributes":{
						"POSITION":36,
						"NORMAL":37,
						"TEXCOORD_0":38
					},
					"indices":39,
					"material":8
				}
			]
		}
	],
	"textures":[
		{
			"sampler":0,
			"source":0
		},
		{
			"sampler":0,
			"source":1
		},
		{
			"sampler":0,
			"source":2
		},
		{
			"sampler":0,
			"source":3
		}
	],
	"images":[
		{
			"mimeType":"image/png",
			"name":"5c4d2299f6484eff9b329143b6209e62_RGB_TopWingsConcrete_Diff",
			"uri":"5c4d2299f6484eff9b329143b6209e62_RGB_TopWingsConcrete_Diff.png"
		},
		{
			"mimeType":"image/png",
			"name":"4ee294a3399e4137baf17bd83a278dbe_R_TopWingsConcrete_Rgh",
			"uri":"4ee294a3399e4137baf17bd83a278dbe_R_TopWingsConcrete_Rgh.png"
		},
		{
			"mimeType":"image/png",
			"name":"47da470e518149938f14fe8995b2aed1_RGB_TopWingsConcrete_Diff",
			"uri":"47da470e518149938f14fe8995b2aed1_RGB_TopWingsConcrete_Diff.png"
		},
		{
			"mimeType":"image/png",
			"name":"733dc90e14614ddc8abb1d78efb7c0dd_RGB_Wall_Diff",
			"uri":"733dc90e14614ddc8abb1d78efb7c0dd_RGB_Wall_Diff.png"
		}
	],
	"accessors":[
		{
			"bufferView":0,
			"componentType":5126,
			"count":402,
			"max":[
				7.889543056488037,
				-0.02992911823093891,
				7.889767169952393
			],
			"min":[
				-7.889689922332764,
				-0.1270567625761032,
				-7.889679908752441
			],
			"type":"VEC3"
		},
		{
			"bufferView":1,
			"componentType":5126,
			"count":402,
			"type":"VEC3"
		},
		{
			"bufferView":2,
			"componentType":5126,
			"count":402,
			"type":"VEC2"
		},
		{
			"bufferView":3,
			"componentType":5123,
			"count":1200,
			"type":"SCALAR"
		},
		{
			"bufferView":4,
			"componentType":5126,
			"count":1400,
			"max":[
				7.811462879180908,
				-0.15234245359897614,
				7.811473369598389
			],
			"min":[
				-7.811395645141602,
				-0.16045400500297546,
				-7.8113861083984375
			],
			"type":"VEC3"
		},
		{
			"bufferView":5,
			"componentType":5126,
			"count":1400,
			"type":"VEC3"
		},
		{
			"bufferView":6,
			"componentType":5126,
			"count":1400,
			"type":"VEC2"
		},
		{
			"bufferView":7,
			"componentType":5123,
			"count":7200,
			"type":"SCALAR"
		},
		{
			"bufferView":8,
			"componentType":5126,
			"count":801,
			"max":[
				3.5046510696411133,
				-0.1530136615037918,
				3.5046510696411133
			],
			"min":[
				-3.5048000812530518,
				-0.16045400500297546,
				-3.5048000812530518
			],
			"type":"VEC3"
		},
		{
			"bufferView":9,
			"componentType":5126,
			"count":801,
			"type":"VEC3"
		},
		{
			"bufferView":10,
			"componentType":5126,
			"count":801,
			"type":"VEC2"
		},
		{
			"bufferView":11,
			"componentType":5123,
			"count":4200,
			"type":"SCALAR"
		},
		{
			"bufferView":12,
			"componentType":5126,
			"count":2211,
			"max":[
				12.685603141784668,
				0.05670896917581558,
				12.685603141784668
			],
			"min":[
				-12.685500144958496,
				-0.1523427665233612,
				-12.685500144958496
			],
			"type":"VEC3"
		},
		{
			"bufferView":13,
			"componentType":5126,
			"count":2211,
			"type":"VEC3"
		},
		{
			"bufferView":14,
			"componentType":5126,
			"count":2211,
			"type":"VEC2"
		},
		{
			"bufferView":15,
			"componentType":5123,
			"count":10800,
			"type":"SCALAR"
		},
		{
			"bufferView":16,
			"componentType":5126,
			"count":1206,
			"max":[
				3.537815570831299,
				0.055766962468624115,
				3.537815570831299
			],
			"min":[
				-3.537736177444458,
				-0.16045400500297546,
				-3.537736177444458
			],
			"type":"VEC3"
		},
		{
			"bufferView":17,
			"componentType":5126,
			"count":1206,
			"type":"VEC3"
		},
		{
			"bufferView":18,
			"componentType":5126,
			"count":1206,
			"type":"VEC2"
		},
		{
			"bufferView":19,
			"componentType":5123,
			"count":6000,
			"type":"SCALAR"
		},
		{
			"bufferView":20,
			"componentType":5126,
			"count":96,
			"max":[
				5.470386028289795,
				4.249489784240723,
				-8.239602088928223
			],
			"min":[
				-5.470459938049316,
				0.004994519986212254,
				-13.336099624633789
			],
			"type":"VEC3"
		},
		{
			"bufferView":21,
			"componentType":5126,
			"count":96,
			"type":"VEC3"
		},
		{
			"bufferView":22,
			"componentType":5126,
			"count":96,
			"type":"VEC2"
		},
		{
			"bufferView":23,
			"componentType":5123,
			"count":252,
			"type":"SCALAR"
		},
		{
			"bufferView":24,
			"componentType":5126,
			"count":36,
			"max":[
				3.198834180831909,
				4.249489784240723,
				-8.476096153259277
			],
			"min":[
				-3.1989150047302246,
				0.004994519986212254,
				-9.016369819641113
			],
			"type":"VEC3"
		},
		{
			"bufferView":25,
			"componentType":5126,
			"count":36,
			"type":"VEC3"
		},
		{
			"bufferView":26,
			"componentType":5126,
			"count":36,
			"type":"VEC2"
		},
		{
			"bufferView":27,
			"componentType":5123,
			"count":102,
			"type":"SCALAR"
		},
		{
			"bufferView":28,
			"componentType":5126,
			"count":1005,
			"max":[
				12.925695419311523,
				4.249507427215576,
				12.925629615783691
			],
			"min":[
				-12.925600051879883,
				3.5812900066375732,
				-12.925600051879883
			],
			"type":"VEC3"
		},
		{
			"bufferView":29,
			"componentType":5126,
			"count":1005,
			"type":"VEC3"
		},
		{
			"bufferView":30,
			"componentType":5126,
			"count":1005,
			"type":"VEC2"
		},
		{
			"bufferView":31,
			"componentType":5123,
			"count":4800,
			"type":"SCALAR"
		},
		{
			"bufferView":32,
			"componentType":5126,
			"count":1113,
			"max":[
				12.554445266723633,
				3.6440694332122803,
				12.544534683227539
			],
			"min":[
				-12.510899543762207,
				-0.025932900607585907,
				-12.571599960327148
			],
			"type":"VEC3"
		},
		{
			"bufferView":33,
			"componentType":5126,
			"count":1113,
			"type":"VEC3"
		},
		{
			"bufferView":34,
			"componentType":5126,
			"count":1113,
			"type":"VEC2"
		},
		{
			"bufferView":35,
			"componentType":5123,
			"count":6096,
			"type":"SCALAR"
		},
		{
			"bufferView":36,
			"componentType":5126,
			"count":1728,
			"max":[
				0.9045816659927368,
				3.830970048904419,
				-8.850150108337402
			],
			"min":[
				-0.9046688675880432,
				1.6910514831542969,
				-9.084229469299316
			],
			"type":"VEC3"
		},
		{
			"bufferView":37,
			"componentType":5126,
			"count":1728,
			"type":"VEC3"
		},
		{
			"bufferView":38,
			"componentType":5126,
			"count":1728,
			"type":"VEC2"
		},
		{
			"bufferView":39,
			"componentType":5123,
			"count":9012,
			"type":"SCALAR"
		}
	],
	"bufferViews":[
		{
			"buffer":0,
			"byteLength":4824,
			"byteOffset":0,
			"target":34962
		},
		{
			"buffer":0,
			"byteLength":4824,
			"byteOffset":4824,
			"target":34962
		},
		{
			"buffer":0,
			"byteLength":3216,
			"byteOffset":9648,
			"target":34962
		},
		{
			"buffer":0,
			"byteLength":2400,
			"byteOffset":12864,
			"target":34963
		},
		{
			"buffer":0,
			"byteLength":16800,
			"byteOffset":15264,
			"target":34962
		},
		{
			"buffer":0,
			"byteLength":16800,
			"byteOffset":32064,
			"target":34962
		},
		{
			"buffer":0,
			"byteLength":11200,
			"byteOffset":48864,
			"target":34962
		},
		{
			"buffer":0,
			"byteLength":14400,
			"byteOffset":60064,
			"target":34963
		},
		{
			"buffer":0,
			"byteLength":9612,
			"byteOffset":74464,
			"target":34962
		},
		{
			"buffer":0,
			"byteLength":9612,
			"byteOffset":84076,
			"target":34962
		},
		{
			"buffer":0,
			"byteLength":6408,
			"byteOffset":93688,
			"target":34962
		},
		{
			"buffer":0,
			"byteLength":8400,
			"byteOffset":100096,
			"target":34963
		},
		{
			"buffer":0,
			"byteLength":26532,
			"byteOffset":108496,
			"target":34962
		},
		{
			"buffer":0,
			"byteLength":26532,
			"byteOffset":135028,
			"target":34962
		},
		{
			"buffer":0,
			"byteLength":17688,
			"byteOffset":161560,
			"target":34962
		},
		{
			"buffer":0,
			"byteLength":21600,
			"byteOffset":179248,
			"target":34963
		},
		{
			"buffer":0,
			"byteLength":14472,
			"byteOffset":200848,
			"target":34962
		},
		{
			"buffer":0,
			"byteLength":14472,
			"byteOffset":215320,
			"target":34962
		},
		{
			"buffer":0,
			"byteLength":9648,
			"byteOffset":229792,
			"target":34962
		},
		{
			"buffer":0,
			"byteLength":12000,
			"byteOffset":239440,
			"target":34963
		},
		{
			"buffer":0,
			"byteLength":1152,
			"byteOffset":251440,
			"target":34962
		},
		{
			"buffer":0,
			"byteLength":1152,
			"byteOffset":252592,
			"target":34962
		},
		{
			"buffer":0,
			"byteLength":768,
			"byteOffset":253744,
			"target":34962
		},
		{
			"buffer":0,
			"byteLength":504,
			"byteOffset":254512,
			"target":34963
		},
		{
			"buffer":0,
			"byteLength":432,
			"byteOffset":255016,
			"target":34962
		},
		{
			"buffer":0,
			"byteLength":432,
			"byteOffset":255448,
			"target":34962
		},
		{
			"buffer":0,
			"byteLength":288,
			"byteOffset":255880,
			"target":34962
		},
		{
			"buffer":0,
			"byteLength":204,
			"byteOffset":256168,
			"target":34963
		},
		{
			"buffer":0,
			"byteLength":12060,
			"byteOffset":256372,
			"target":34962
		},
		{
			"buffer":0,
			"byteLength":12060,
			"byteOffset":268432,
			"target":34962
		},
		{
			"buffer":0,
			"byteLength":8040,
			"byteOffset":280492,
			"target":34962
		},
		{
			"buffer":0,
			"byteLength":9600,
			"byteOffset":288532,
			"target":34963
		},
		{
			"buffer":0,
			"byteLength":13356,
			"byteOffset":298132,
			"target":34962
		},
		{
			"buffer":0,
			"byteLength":13356,
			"byteOffset":311488,
			"target":34962
		},
		{
			"buffer":0,
			"byteLength":8904,
			"byteOffset":324844,
			"target":34962
		},
		{
			"buffer":0,
			"byteLength":12192,
			"byteOffset":333748,
			"target":34963
		},
		{
			"buffer":0,
			"byteLength":20736,
			"byteOffset":345940,
			"target":34962
		},
		{
			"buffer":0,
			"byteLength":20736,
			"byteOffset":366676,
			"target":34962
		},
		{
			"buffer":0,
			"byteLength":13824,
			"byteOffset":387412,
			"target":34962
		},
		{
			"buffer":0,
			"byteLength":18024,
			"byteOffset":401236,
			"target":34963
		}
	],
	"samplers":[
		{
			"magFilter":9729,
			"minFilter":9987
		}
	],
	"buffers":[
		{
			"byteLength":419260,
			"uri":"showroom.bin"
		}
	]
}
